<?xml version="1.0" encoding="UTF-8"?> <svg xmlns="http://www.w3.org/2000/svg" id="_Слой_2" data-name="Слой 2" viewBox="0 0 507.96 96.1"><defs><style> .cls-1 { fill: #000; } .cls-1, .cls-2 { stroke-width: 0px; } .cls-2 { fill: #74869f; fill-rule: evenodd; } </style></defs><g id="_Слой_1-2" data-name="Слой 1"><path class="cls-2" d="M216.52,50.63l6.23,11.78h-12.43l6.2-11.78ZM233.13,0c26.54,0,48.05,21.51,48.05,48.05,0,4.28-.56,8.43-1.61,12.39h-22.78V26.51h-9.94v41.92h29.81c-7.67,16.35-24.27,27.67-43.52,27.67s-35.85-11.32-43.52-27.67h8.72l.23-.34.97-1.71c5.49-10.56,11.3-20.98,16.85-31.53,5.66,10.71,11.63,21.26,17.19,31.99l.74,1.31.11.29h10.91l-.17-.34-1.31-2.23-22.73-39.35h-9.31l-1.14,1.94-21.65,37.58-.27.46c-2.36-5.68-3.67-11.91-3.67-18.45,0-26.54,21.51-48.05,48.05-48.05Z"></path><polygon class="cls-1" points="174.02 34.22 174.02 26.73 128.21 26.73 128.21 34.62 161.29 34.62 127.59 60.61 127.59 68.09 174.54 68.09 174.54 60.21 140.95 60.21 174.02 34.22"></polygon><polygon class="cls-1" points="496.54 68.43 507.96 68.43 485.4 42.39 507.62 26.51 494.88 26.51 467.75 44.56 467.75 26.51 457.87 26.51 457.87 68.43 467.75 68.43 467.75 54.04 477.92 47.35 496.54 68.43"></polygon><path class="cls-1" d="M447.53,56.21c-4.23,3.08-12.62,5.14-20.9,5.14-12.17,0-20.28-5.37-20.28-13.48s8.11-13.42,20.28-13.42c6.57,0,14.74,2.86,20.39,7.08l.17-.57,2.17-6.45.23-.86.28-1.09c-5.03-4.17-14.34-6.97-23.36-6.97-18.34,0-30.56,8.91-30.56,22.28s12.22,22.28,30.56,22.28c9.2,0,18.51-2.23,23.3-5.54l-2.28-8.4Z"></path><path class="cls-1" d="M55.25,61.78l5.8,6.3h-10.23l-1.75-1.9c-4.96,2.53-11.25,3.95-18.52,3.96h0s-.05,0-.05,0h-.05s0,0,0,0c-18.28-.03-30.47-8.93-30.47-22.27s12.18-22.24,30.47-22.27h0s.05,0,.05,0h.05s0,0,0,0c18.28.03,30.47,8.93,30.47,22.27,0,5.49-2.07,10.23-5.77,13.91M30.51,34.45c-12.08.05-20.12,5.4-20.12,13.42s8.04,13.43,20.12,13.48c4.68-.02,8.76-.84,11.99-2.3l-5.9-6.4h10.23l1.65,1.79c1.39-1.89,2.14-4.1,2.14-6.56,0-8.02-8.04-13.37-20.12-13.42Z"></path><path class="cls-1" d="M291.74,68.43V26.51h25.76c17.19,0,24.1,3.83,24.1,13.37s-6.91,13.42-24.1,13.42h-15.94v15.14h-9.82ZM301.74,33.59v12.57h17.48c8.23,0,11.54-1.77,11.54-6.28s-3.31-6.28-11.54-6.28h-17.48Z"></path><polygon class="cls-1" points="364.94 34.85 382.13 66.83 382.87 68.15 382.99 68.43 393.9 68.43 393.73 68.09 392.41 65.86 369.68 26.51 360.37 26.51 359.23 28.45 337.58 66.03 336.38 68.09 336.21 68.43 346.89 68.43 347.12 68.09 348.09 66.37 364.94 34.85"></polygon><path class="cls-1" d="M94.28,34.5c5.66,10.71,11.63,21.26,17.19,31.99l.74,1.31.11.29h10.91l-.17-.34-1.31-2.23-22.73-39.35h-9.31l-1.14,1.94-21.65,37.58-1.2,2.06-.17.34h10.68l.23-.34.97-1.71c5.49-10.56,11.3-20.98,16.85-31.53"></path></g></svg> 