<svg width="121" height="120" viewBox="0 0 121 120" fill="none" xmlns="http://www.w3.org/2000/svg">
<rect x="0.0234375" width="120" height="120" rx="60" fill="#E50909"/>
<path d="M32.0664 79.9294C31.9626 79.7666 31.8275 79.626 31.6691 79.5156C31.5106 79.4052 31.3319 79.3273 31.1433 79.2862C30.9546 79.2452 30.7596 79.2418 30.5696 79.2764C30.3797 79.311 30.1984 79.3828 30.0363 79.4877L23.6824 83.732L21.6677 80.7042L28.0236 76.4657C28.3369 76.2389 28.5502 75.8994 28.6185 75.5186C28.6869 75.1379 28.605 74.7454 28.3901 74.4237C28.1753 74.102 27.8441 73.8761 27.4662 73.7935C27.0883 73.7108 26.693 73.7778 26.3634 73.9803L20.0018 78.2285L17.9871 75.2066L24.343 70.9681C24.6563 70.7412 24.8696 70.4017 24.9379 70.021C25.0063 69.6402 24.9244 69.2477 24.7095 68.9261C24.4946 68.6044 24.1635 68.3785 23.7856 68.2958C23.4076 68.2131 23.0124 68.2801 22.6828 68.4827L15.3216 73.3914C15.0024 73.6137 14.7843 73.9533 14.715 74.3359C14.6456 74.7186 14.7307 75.1131 14.9516 75.4332L22.3128 86.4441C22.4167 86.6068 22.5518 86.7475 22.7102 86.8578C22.8686 86.9682 23.0473 87.0462 23.236 87.0872C23.4247 87.1283 23.6196 87.1316 23.8096 87.097C23.9996 87.0624 24.1809 86.9906 24.343 86.8857L31.7042 81.9789C31.8631 81.8686 31.9986 81.7279 32.1029 81.5649C32.2072 81.402 32.2783 81.22 32.3119 81.0295C32.3456 80.839 32.3413 80.6437 32.2991 80.4549C32.257 80.2661 32.1779 80.0875 32.0664 79.9294Z" fill="white"/>
<path d="M41.8107 86.9246C41.6519 86.8132 41.4727 86.7342 41.2832 86.6923C41.0938 86.6504 40.898 86.6463 40.707 86.6804C40.516 86.7144 40.3336 86.7858 40.1703 86.8906C40.007 86.9953 39.866 87.1313 39.7554 87.2907L39.5094 87.6549L33.2989 88.9083L36.0709 84.7995C36.2735 84.4712 36.3413 84.0772 36.2602 83.7C36.1791 83.3228 35.9553 82.9916 35.6357 82.7755C35.3161 82.5594 34.9253 82.4752 34.545 82.5405C34.1648 82.6058 33.8245 82.8155 33.5952 83.1258L28.5586 90.5839C28.3561 90.9123 28.2883 91.3062 28.3694 91.6834C28.4505 92.0606 28.6742 92.3919 28.9938 92.608C29.3135 92.8241 29.7042 92.9082 30.0845 92.843C30.4648 92.7777 30.8051 92.568 31.0343 92.2576L31.2435 91.9477L37.4638 90.6808L34.7188 94.7488C34.5162 95.0772 34.4484 95.4711 34.5295 95.8483C34.6106 96.2255 34.8344 96.5568 35.154 96.7729C35.4737 96.989 35.8644 97.0731 36.2447 97.0079C36.6249 96.9426 36.9652 96.7329 37.1945 96.4225L42.2311 88.9644C42.3383 88.8032 42.4124 88.6223 42.4493 88.4322C42.4862 88.2421 42.485 88.0466 42.446 87.8569C42.4069 87.6673 42.3306 87.4873 42.2216 87.3272C42.1126 87.1672 41.9729 87.0304 41.8107 86.9246Z" fill="white"/>
<path d="M52.9227 90.8707C52.5507 90.7578 52.1492 90.7962 51.8054 90.9776C51.4616 91.1589 51.2031 91.4685 51.0862 91.8393L50.2145 94.8457L45.976 93.6156L46.8477 90.615C46.9367 90.2414 46.8785 89.848 46.6853 89.5161C46.4921 89.1843 46.1787 88.9395 45.8099 88.8324C45.4411 88.7253 45.0453 88.7642 44.7044 88.941C44.3635 89.1178 44.1037 89.4189 43.9788 89.782L41.4605 98.4237C41.351 98.8044 41.3973 99.213 41.5891 99.5596C41.781 99.9061 42.1026 100.162 42.4833 100.272C42.864 100.381 43.2726 100.335 43.6192 100.143C43.9657 99.9513 44.2219 99.6296 44.3314 99.2489L45.2302 96.1495L49.4687 97.3796L48.5699 100.479C48.4809 100.853 48.5391 101.246 48.7323 101.578C48.9255 101.91 49.2389 102.155 49.6077 102.262C49.9765 102.369 50.3723 102.33 50.7132 102.153C51.054 101.976 51.3139 101.675 51.4388 101.312L53.9571 92.6703C54.0081 92.4842 54.0217 92.2899 53.9972 92.0985C53.9728 91.9071 53.9106 91.7225 53.8145 91.5552C53.7183 91.3879 53.59 91.2413 53.437 91.1238C53.2839 91.0063 53.1091 90.9203 52.9227 90.8707Z" fill="white"/>
<path d="M72.981 91.0815C72.9384 90.8931 72.8592 90.715 72.7477 90.5574C72.6362 90.3997 72.4947 90.2655 72.3314 90.1626C72.168 90.0597 71.9859 89.99 71.7955 89.9575C71.6052 89.9251 71.4103 89.9305 71.222 89.9734L65.2072 91.2248C64.8263 91.2999 64.4904 91.5224 64.2728 91.8438C64.0551 92.1652 63.9732 92.5596 64.0449 92.9412L64.5175 95.2328C64.905 97.0925 65.0154 98.1115 64.9534 98.9735C64.8585 100.347 64.0739 100.994 64.2657 101.908C64.3051 102.099 64.3822 102.28 64.4927 102.44C64.6031 102.601 64.7446 102.738 64.9087 102.843C65.0728 102.947 65.2563 103.018 65.4483 103.051C65.6403 103.084 65.8369 103.078 66.0266 103.034C66.8731 102.858 67.3613 102.116 67.6209 101.124C68.1303 99.1633 67.7758 96.2189 67.4426 94.6246L67.2102 93.5107L70.3096 92.8676L71.871 100.347C71.9668 100.719 72.2024 101.04 72.5288 101.244C72.8552 101.447 73.2473 101.517 73.6237 101.438C74.0002 101.36 74.332 101.14 74.5503 100.823C74.7686 100.507 74.8567 100.118 74.7961 99.7387L72.981 91.0815Z" fill="white"/>
<path d="M86.6054 93.4314L80.265 87.3487C79.6142 86.7308 78.7424 86.3801 77.6441 86.9613C76.5457 87.5424 76.3617 88.4239 76.5089 89.3246L77.8649 98.0322C77.8899 98.2459 77.9481 98.4544 78.0373 98.6501C78.1212 98.8159 78.2382 98.9627 78.3811 99.0814C78.524 99.2001 78.6898 99.2881 78.8682 99.3401C79.0466 99.392 79.2337 99.4068 79.418 99.3834C79.6023 99.36 79.7799 99.299 79.9396 99.2042C80.6602 98.8167 80.8927 98.2801 80.7726 97.6544L80.5266 96.3449L83.6667 94.6925L84.5888 95.6475C85.046 96.1163 85.6794 96.1861 86.309 95.8548C87.0839 95.4519 87.4093 94.6925 87.0064 93.9332C86.8948 93.7494 86.76 93.5808 86.6054 93.4314ZM80.0558 93.877L79.3662 90.268L81.9174 92.9084L80.0558 93.877Z" fill="white"/>
<path d="M82.8785 78.5735C82.4911 78.4805 82.0765 78.401 81.7356 78.7304C81.6417 78.8148 81.5655 78.9171 81.5115 79.0313C81.4575 79.1455 81.4267 79.2692 81.4209 79.3954C81.4151 79.5216 81.4345 79.6476 81.4779 79.7663C81.5213 79.8849 81.5878 79.9937 81.6736 80.0864C82.0145 80.4409 82.6616 80.5261 83.1652 80.559C83.9667 80.5715 84.7406 80.2665 85.318 79.7105C85.8954 79.1545 86.2294 78.3927 86.2472 77.5913C86.2317 77.0876 86.1736 76.4387 85.8307 76.0842C85.7416 75.9949 85.6356 75.9242 85.5188 75.8762C85.4021 75.8283 85.2769 75.8041 85.1507 75.805C85.0245 75.8059 84.8997 75.8319 84.7837 75.8815C84.6676 75.9311 84.5626 76.0033 84.4747 76.0939C84.1319 76.4232 84.1958 76.8319 84.281 77.231C84.4011 77.8683 84.1435 78.1647 83.9846 78.3177C83.8258 78.4708 83.5197 78.7149 82.8785 78.5735Z" fill="white"/>
<path d="M91.0614 78.1491C90.7822 77.8839 90.4114 77.7366 90.0263 77.7379C89.6412 77.7393 89.2714 77.8891 88.994 78.1562C88.7166 78.4234 88.553 78.7873 88.5372 79.172C88.5214 79.5568 88.6547 79.9329 88.9092 80.2219L89.2153 80.5396L89.1417 86.876L85.7051 83.3058C85.4259 83.0406 85.0551 82.8933 84.67 82.8947C84.2849 82.896 83.9152 83.0458 83.6378 83.313C83.3604 83.5801 83.1967 83.944 83.1809 84.3288C83.1651 84.7136 83.2984 85.0896 83.553 85.3786L89.7926 91.8604C90.0718 92.1256 90.4426 92.2729 90.8277 92.2716C91.2128 92.2702 91.5825 92.1204 91.8599 91.8532C92.1373 91.5861 92.3009 91.2222 92.3167 90.8374C92.3325 90.4526 92.1993 90.0766 91.9447 89.7876L91.6852 89.5183L91.7452 83.1683L95.1488 86.7094C95.4252 86.9871 95.7995 87.145 96.1912 87.1493C96.583 87.1535 96.9606 87.0037 97.2429 86.732C97.5252 86.4604 97.6895 86.0888 97.7003 85.6972C97.7112 85.3056 97.5678 84.9255 97.301 84.6386L91.0614 78.1491Z" fill="white"/>
<path d="M105.072 71.7507L97.1505 67.4889C96.8034 67.3197 96.4044 67.2913 96.0369 67.4096C95.6693 67.5278 95.3618 67.7837 95.1786 68.1235C94.9954 68.4634 94.9507 68.861 95.054 69.233C95.1572 69.605 95.4003 69.9227 95.7324 70.1196L98.4813 71.5996L96.3853 75.4739L93.6364 73.992C93.2858 73.8037 92.8747 73.7624 92.4936 73.8772C92.1125 73.992 91.7926 74.2535 91.6044 74.6041C91.4161 74.9548 91.3748 75.3659 91.4896 75.7469C91.6044 76.128 91.8658 76.4479 92.2165 76.6362L100.138 80.898C100.484 81.0647 100.881 81.0916 101.247 80.973C101.613 80.8544 101.919 80.5995 102.102 80.2612C102.285 79.9228 102.33 79.5271 102.229 79.1562C102.127 78.7852 101.887 78.4676 101.557 78.2692L98.7176 76.7389L100.814 72.8549L103.654 74.3833C104.002 74.5646 104.407 74.6017 104.782 74.4865C105.157 74.3713 105.472 74.1132 105.658 73.7678C105.844 73.4225 105.887 73.0177 105.778 72.6409C105.668 72.2642 105.414 71.9458 105.072 71.7546V71.7507Z" fill="white"/>
<path d="M32.4387 56.7514C34.554 58.2294 37.9015 58.1287 40.9254 57.4158C40.9751 57.4041 41.0189 57.3747 41.0486 57.3331C41.0783 57.2916 41.0919 57.2407 41.0869 57.1898C41.082 57.139 41.0587 57.0917 41.0216 57.0566C40.9844 57.0216 40.9357 57.0013 40.8847 56.9993C36.652 56.7901 32.6653 55.2172 30.8773 52.2087C30.8531 52.1717 30.8179 52.1432 30.7767 52.1272C30.7354 52.1113 30.6902 52.1087 30.6474 52.1198C30.6046 52.131 30.5663 52.1553 30.5381 52.1893C30.5098 52.2233 30.493 52.2653 30.4899 52.3095C30.4337 53.4427 30.5751 55.4496 32.4387 56.7514Z" fill="white"/>
<path d="M53.9885 68.5466C53.3542 68.8914 52.6776 69.1519 51.9758 69.3215C48.8143 70.1816 44.754 68.8198 42.8169 65.2864C42.7645 65.1899 42.7359 65.0822 42.7334 64.9724C42.731 64.8626 42.7549 64.7538 42.803 64.6551C42.8512 64.5563 42.9222 64.4705 43.0102 64.4048C43.0982 64.339 43.2006 64.2953 43.3089 64.2771C45.8098 63.8587 49.8759 61.4895 53.5953 60.9065C53.676 60.8893 53.7491 60.8469 53.804 60.7853C53.8589 60.7237 53.8927 60.6462 53.9005 60.564C53.9083 60.4819 53.8896 60.3994 53.8473 60.3286C53.8049 60.2578 53.7411 60.2023 53.665 60.1703C51.9855 59.5698 49.6996 59.008 46.637 59.8914C39.1692 62.0571 37.2902 61.7394 34.491 61.2881C33.4172 61.1459 32.398 60.7303 31.531 60.0812C31.5053 60.0608 31.4739 60.0489 31.4411 60.0471C31.4083 60.0453 31.3758 60.0536 31.348 60.0711C31.3202 60.0885 31.2985 60.1141 31.2858 60.1443C31.2731 60.1746 31.2701 60.208 31.2772 60.2401C32.401 64.9902 34.6816 69.3888 37.9159 73.0447C37.9682 73.1028 38.0166 73.1629 38.0728 73.2191C40.5911 75.7742 43.0164 76.8086 44.138 77.0062C45.7764 77.3089 47.4633 77.216 49.0584 76.735C49.1732 76.6971 49.2722 76.6224 49.3401 76.5225C49.408 76.4225 49.4409 76.303 49.4339 76.1824C49.4268 76.0617 49.3801 75.9468 49.301 75.8555C49.2219 75.7642 49.1148 75.7015 48.9964 75.6773L48.9596 75.6676C48.8666 75.6473 48.7826 75.5975 48.7202 75.5255C48.6579 75.4536 48.6204 75.3634 48.6134 75.2685C48.6064 75.1735 48.6304 75.0788 48.6816 74.9986C48.7328 74.9183 48.8086 74.8567 48.8976 74.823C51.0285 74.0637 53.8064 71.9173 55.0326 69.5385C55.1027 69.3942 55.1251 69.2313 55.0965 69.0735C55.0678 68.9157 54.9897 68.771 54.8734 68.6606C54.7571 68.5501 54.6087 68.4795 54.4496 68.459C54.2905 68.4385 54.129 68.4692 53.9885 68.5466Z" fill="white"/>
<path d="M34.3969 51.8523C36.2062 53.4194 38.4455 54.4577 40.2878 54.8335C45.7312 55.9513 51.2773 56.9412 51.2773 55.2675C51.2773 54.8335 49.9968 54.4151 47.2596 53.9425C45.9036 53.71 43.5674 53.1676 38.9511 50.5892C36.3147 49.1286 33.744 46.3798 32.9014 42.9839C32.887 42.9274 32.855 42.8769 32.8099 42.8399C32.7648 42.8029 32.7091 42.7814 32.6508 42.7783C32.5926 42.7753 32.5349 42.791 32.4862 42.8231C32.4375 42.8552 32.4004 42.9021 32.3803 42.9568C32.3338 43.0788 32.2892 43.2009 32.2447 43.3229C31.6998 44.7956 31.6137 46.3988 31.9979 47.9214C32.3821 49.4439 33.2185 50.8144 34.3969 51.8523Z" fill="white"/>
<path d="M80.4956 60.0387C80.5329 60.0595 80.575 60.0705 80.6177 60.0705C80.6604 60.0705 80.7024 60.0595 80.7397 60.0387C81.102 59.8101 81.1775 58.9558 81.6676 58.5993C81.8129 58.4172 81.8749 57.9349 81.503 57.9097C81.0167 57.933 80.1838 57.8245 79.6065 58.0182C79.5459 58.043 79.4957 58.088 79.4643 58.1456C79.433 58.2031 79.4225 58.2697 79.4346 58.3341C79.4466 58.3985 79.4805 58.4568 79.5305 58.4991C79.5806 58.5414 79.6437 58.5652 79.7092 58.5664C79.8147 58.57 79.9185 58.5937 80.0152 58.6361C80.0478 58.6544 80.0764 58.679 80.0994 58.7085C80.1224 58.738 80.1392 58.7718 80.1489 58.8079C80.1587 58.844 80.1611 58.8816 80.1561 58.9187C80.1511 58.9557 80.1388 58.9914 80.1198 59.0236C80.0425 59.2089 80.0383 59.4167 80.1081 59.605C80.1778 59.7934 80.3163 59.9483 80.4956 60.0387Z" fill="white"/>
<path d="M68.4893 61.6484C68.8225 61.3327 69.5411 60.8736 69.7639 60.6043C69.8646 60.4106 69.5702 60.3486 69.4385 60.2769C68.6016 59.8721 67.2824 59.0178 66.0678 59.2464L66.0019 59.256C64.9811 59.413 64.3612 59.9612 63.5863 60.49C63.2473 60.7283 62.7804 60.9549 62.7281 61.1002C62.6758 61.2455 62.8521 61.2804 63.009 61.3579C63.9776 61.6852 64.8629 62.3923 65.9148 62.4524C66.3758 62.496 66.8409 62.4474 67.2829 62.3094C67.7249 62.1714 68.135 61.9467 68.4893 61.6484ZM65.322 60.399C65.57 59.9825 66.1104 59.7752 66.587 59.7907C66.7942 59.7694 67.4606 60.0135 67.0945 60.122C66.9996 60.1375 66.8504 60.1316 66.7206 60.1568L66.6645 60.1685C65.4034 60.5869 67.0054 61.815 66.3623 61.784C65.7191 61.753 64.9481 61.0208 65.322 60.399Z" fill="white"/>
<path d="M43.8559 33.7106C43.5246 33.7455 43.6157 33.1837 43.1953 33.3445C43.2786 35.241 45.0627 33.8249 45.055 33.0248C44.747 32.5909 43.2941 32.6878 43.8559 33.7106Z" fill="white"/>
<path d="M66.0249 49.7523C66.4124 51.9917 65.6162 53.7545 64.3725 54.9207C64.3285 54.9635 64.2992 55.0191 64.2888 55.0796C64.2783 55.14 64.2873 55.2023 64.3144 55.2573C64.3415 55.3124 64.3853 55.3575 64.4396 55.3861C64.4939 55.4147 64.5559 55.4254 64.6166 55.4166C66.3717 55.1687 68.7622 55.1996 69.0372 55.4437C71.0616 56.6932 73.0142 56.7997 73.4385 56.7997C73.6186 56.7997 79.6064 56.7997 81.2685 56.916C81.3944 56.916 82.055 57.1523 82.301 58.1674C82.4811 58.8938 83.0042 61.7608 82.9248 62.156C82.7892 62.834 81.9562 64.4806 81.5377 65.0482C81.5185 65.0745 81.4949 65.0975 81.468 65.116C81.062 65.4471 80.5823 65.6756 80.0694 65.7824C78.1497 66.1601 71.0538 68.6881 69.8547 74.6313C69.5932 75.9196 68.4871 79.7067 67.9059 81.6264C67.8912 81.6762 67.8901 81.7289 67.9027 81.7792C67.9153 81.8295 67.9411 81.8755 67.9775 81.9125C68.0139 81.9495 68.0595 81.976 68.1095 81.9894C68.1596 82.0028 68.2124 82.0026 68.2624 81.9887C74.3157 80.2736 79.6682 76.6808 83.5483 71.7281C87.4284 66.7753 89.6357 60.7185 89.8521 54.4306C89.8521 54.1904 89.8656 53.9482 89.8675 53.7061C89.8675 53.6054 89.8675 53.5124 89.8675 53.4039C89.8675 53.2722 89.8675 53.1404 89.8675 53.0165C89.8675 52.7724 89.8579 52.5302 89.8501 52.2881C89.8501 52.1544 89.8404 52.0208 89.8327 51.889C89.8191 51.5985 89.7997 51.3079 89.7765 51.0212C89.761 50.8391 89.7455 50.657 89.7281 50.4749C89.7029 50.2328 89.6777 49.9906 89.6467 49.7504C89.6157 49.5102 89.5886 49.3049 89.5576 49.0821C89.5324 48.9174 89.5072 48.7547 89.4801 48.592C89.4259 48.2549 89.3658 47.9204 89.3 47.5885C88.2752 42.7456 85.4837 40.0782 83.9495 38.941C83.895 38.9014 83.856 38.8441 83.8391 38.7789C83.8222 38.7137 83.8284 38.6447 83.8568 38.5836C83.8852 38.5225 83.9339 38.4732 83.9946 38.444C84.0554 38.4149 84.1243 38.4077 84.1897 38.4238C84.8173 38.5715 85.4238 38.7973 85.9952 39.096C86.0139 39.1057 86.0352 39.1091 86.056 39.1056C86.0768 39.1021 86.0959 39.0919 86.1103 39.0765C86.1248 39.0612 86.1339 39.0416 86.1362 39.0206C86.1384 38.9996 86.1338 38.9785 86.123 38.9604C85.6445 38.1739 84.519 36.723 81.9155 35.7176C78.6378 34.4526 74.6453 34.9602 71.5439 36.4324C71.4786 36.4625 71.4044 36.4674 71.3357 36.4463C71.2669 36.4251 71.2083 36.3793 71.1712 36.3177C71.134 36.2561 71.1209 36.183 71.1343 36.1123C71.1476 36.0416 71.1866 35.9783 71.2437 35.9346C74.161 33.6061 78.0857 32.9804 81.4448 33.4376C81.505 33.4467 81.5665 33.4368 81.6208 33.409C81.675 33.3813 81.7192 33.3373 81.747 33.2831C81.7748 33.2289 81.7849 33.1674 81.7759 33.1072C81.7669 33.0469 81.7391 32.9911 81.6966 32.9475C77.5361 28.5653 72.1355 25.5595 66.2187 24.3329L66.0908 24.3058C65.6556 24.218 65.2171 24.1398 64.7755 24.0714C64.6902 24.0597 63.6248 23.9048 62.5322 23.8215C61.3506 23.7324 60.1379 23.7169 60.1302 23.7169C59.2001 23.7105 58.2703 23.7519 57.3445 23.8409C55.4074 21.6751 51.7171 19.0309 51.2754 23.3992C50.4405 23.2636 49.3905 22.0044 48.2166 22.417C47.0427 22.8297 47.3856 24.3329 47.8989 25.8245C46.3935 26.475 44.9584 27.2772 43.6158 28.2188C42.3528 29.1312 40.6985 30.3807 39.9023 31.5856C39.8907 31.6031 39.6795 31.9731 39.664 31.9905C39.2979 32.6743 39.1662 33.2961 38.9918 34.1407C38.9805 34.1983 38.9529 34.2514 38.9124 34.2938C37.2852 35.9346 35.0923 38.5923 34.302 39.9871C34.2689 40.046 34.2593 40.1151 34.2748 40.1808C34.7979 42.4415 36.8668 44.2915 38.525 45.4112C39.8481 46.3023 40.6365 45.754 41.1382 45.3995C41.5626 45.0691 42.0729 44.8674 42.6085 44.8184C44.4837 44.7564 45.0706 44.9617 45.8881 43.3578C46.5235 42.7069 47.2868 43.2706 46.3782 44.1849C45.7022 44.8649 45.8358 45.3124 45.1016 45.541C44.1737 45.8412 44.2125 45.9807 43.0851 46.2616C42.2366 46.4747 42.161 46.3081 41.8646 46.6103C41.8191 46.6573 41.7909 46.7184 41.7849 46.7836C41.7789 46.8488 41.7955 46.9141 41.8317 46.9686C43.3601 49.2739 45.4329 49.361 48.203 49.0337C48.2491 49.0276 48.2931 49.0107 48.3315 48.9844C48.3698 48.9582 48.4015 48.9233 48.4239 48.8826C49.0922 47.6621 49.5009 46.1977 51.8875 44.9036C52.9103 44.3477 53.1854 44.7971 52.5578 45.5158C50.9248 47.3851 50.3901 49.3087 51.4923 50.9224C52.211 51.9781 53.8169 52.5767 55.4713 52.7162H55.5042C57.8656 52.7162 59.2313 51.5539 59.9268 50.3645C60.2793 49.7523 60.9321 49.2526 61.0891 50.5408C61.1723 51.2072 61.089 52.2513 60.5873 52.9235L60.4595 53.0901C60.4202 53.1421 60.3994 53.2058 60.4004 53.2711C60.4015 53.3363 60.4243 53.3993 60.4653 53.4501C60.5062 53.5008 60.563 53.5364 60.6265 53.5512C60.6901 53.566 60.7567 53.5592 60.8159 53.5317C62.633 52.7317 63.8398 51.2846 64.0645 49.3882C64.2059 48.2046 65.5891 47.2379 66.0249 49.7523ZM87.5275 52.6581C87.2059 53.6422 86.2199 54.1981 85.3249 53.9056C84.4299 53.6131 83.9689 52.5767 84.2982 51.5946C84.6275 50.6124 85.6058 50.0545 86.4969 50.349C87.388 50.6434 87.8529 51.674 87.5275 52.6562V52.6581ZM84.3176 41.6511C86.2218 42.3853 87.1071 44.675 86.3012 46.7691C85.4954 48.8632 83.2986 49.9654 81.3983 49.2332C79.4979 48.5009 78.6088 46.2093 79.4166 44.1152C80.2244 42.0211 82.4172 40.9169 84.3195 41.6492L84.3176 41.6511ZM74.777 37.9356C75.7727 37.0329 77.3864 37.1879 78.3821 38.2843C79.3778 39.3808 79.3759 40.9964 78.3821 41.9068C77.3883 42.8173 75.7689 42.6546 74.7732 41.5581C73.7775 40.4617 73.7736 38.8403 74.777 37.9356ZM38.6993 40.1188C38.6344 40.1152 38.5693 40.1198 38.5056 40.1324C38.0136 40.3261 37.7424 40.7755 37.4208 41.409C37.2542 41.7383 36.9656 42.3659 36.7118 42.3078C36.287 42.2073 35.9111 41.9604 35.6502 41.6104C35.5325 41.4611 35.4372 41.2953 35.3674 41.1184C35.3497 41.0704 35.3456 41.0184 35.3555 40.9681C35.3654 40.9179 35.389 40.8714 35.4236 40.8336C35.6289 40.6095 35.8532 40.4034 36.0938 40.2176C36.341 40.0019 36.6061 39.8075 36.8861 39.6365C37.6571 39.034 39.0364 39.0379 38.6993 40.1188ZM46.0722 32.839C46.0207 32.8575 45.9753 32.89 45.9411 32.9327C45.9069 32.9754 45.8852 33.0268 45.8784 33.0811C45.5859 35.0609 43.703 34.5107 42.5717 34.9912C42.5176 35.0134 42.4581 35.0188 42.401 35.0066C42.3438 34.9945 42.2916 34.9654 42.2512 34.9231C42.2108 34.8808 42.1841 34.8274 42.1746 34.7697C42.1651 34.7121 42.1732 34.6529 42.1978 34.5999C42.2954 34.3979 42.4264 34.2138 42.5853 34.0555C42.6244 34.0205 42.654 33.9763 42.6716 33.9269C42.6892 33.8775 42.6942 33.8245 42.686 33.7727C42.2869 31.4675 45.0629 31.0607 46.2097 32.3837C46.2385 32.4204 46.258 32.4635 46.2666 32.5094C46.2752 32.5552 46.2727 32.6024 46.2592 32.6471C46.2457 32.6917 46.2217 32.7325 46.1891 32.7659C46.1566 32.7993 46.1164 32.8244 46.0722 32.839ZM52.2168 25.3693C52.2168 25.4061 52.2168 25.4351 52.2168 25.4603C52.2149 25.4351 52.2149 25.4022 52.2168 25.3693ZM54.3225 26.6284C53.6972 26.4011 53.0603 26.2071 52.4144 26.0473C52.3543 26.0298 52.3016 25.993 52.2645 25.9426C52.2274 25.8922 52.2079 25.8309 52.2091 25.7683C52.2091 25.6753 52.2091 25.5746 52.2091 25.4836L52.2285 24.7862C52.2366 24.1826 52.3212 23.5824 52.4803 23.0001C52.5131 22.9125 52.5675 22.8345 52.6385 22.7735C52.7094 22.7125 52.7946 22.6704 52.8862 22.6511C52.9778 22.6318 53.0727 22.6359 53.1623 22.663C53.2518 22.6902 53.3331 22.7395 53.3985 22.8064C53.8022 23.2329 54.11 23.7408 54.3012 24.2961C54.3012 24.2961 54.3903 24.5673 54.431 24.6932C54.5886 25.2355 54.6854 25.7936 54.7197 26.3572C54.7193 26.4045 54.7076 26.451 54.6854 26.4927C54.6631 26.5344 54.6312 26.5702 54.5921 26.5968C54.5531 26.6235 54.5082 26.6403 54.4612 26.6458C54.4143 26.6513 54.3667 26.6453 54.3225 26.6284ZM58.8129 42.9548C58.4284 43.0173 58.04 43.0535 57.6506 43.0633C57.6212 43.0638 57.5925 43.0548 57.5686 43.0377C57.5447 43.0206 57.5268 42.9963 57.5177 42.9684C57.5087 42.9404 57.5087 42.9103 57.518 42.8824C57.5273 42.8546 57.5452 42.8304 57.5692 42.8134C57.8966 42.5854 58.2061 42.3328 58.4952 42.0579C59.8996 40.7198 60.7461 38.9003 60.865 36.9641C60.984 35.028 60.3665 33.1185 59.1364 31.6186C59.0994 31.5707 59.0782 31.5124 59.076 31.4519C59.0737 31.3914 59.0903 31.3317 59.1236 31.2811C59.1569 31.2306 59.2051 31.1917 59.2616 31.1698C59.3181 31.148 59.38 31.1444 59.4386 31.1595C60.7304 31.5648 61.8506 32.3886 62.6224 33.501C63.3942 34.6134 63.7738 35.9511 63.7012 37.3031C63.6285 38.6551 63.1079 39.9444 62.2214 40.9678C61.3349 41.9911 60.133 42.6902 58.8051 42.9548H58.8129Z" fill="white"/>
<path d="M58.4474 96.4128C58.1233 96.4128 57.8064 96.509 57.5369 96.689C57.2674 96.8691 57.0574 97.1251 56.9333 97.4245C56.8093 97.724 56.7768 98.0535 56.8401 98.3714C56.9033 98.6893 57.0594 98.9813 57.2886 99.2105C57.5178 99.4397 57.8098 99.5958 58.1277 99.659C58.4456 99.7223 58.7751 99.6898 59.0746 99.5658C59.3741 99.4417 59.63 99.2317 59.8101 98.9622C59.9902 98.6927 60.0863 98.3758 60.0863 98.0517C60.0863 97.617 59.9136 97.2002 59.6063 96.8928C59.2989 96.5855 58.8821 96.4128 58.4474 96.4128Z" fill="white"/>
</svg>
